<svg xmlns="http://www.w3.org/2000/svg" width="200" height="41" viewBox="0 0 200 41" xml:space="preserve"><path d="m133.356 17.101 6.447-12.638h.113l7.129 12.638h7.327L144.916.771h-6.192l-8.549 16.33zM31.996 9.973l10.111-.113c-.114 2.272-1.42 3.55-2.102 4.089-1.675 1.278-4.061 1.392-5.197 1.392-1.676 0-3.124-.229-4.601-1.08-.938-.54-2.017-1.449-2.556-2.215l-.455-.653-3.294 1.817c.966 1.08 2.471 2.158 4.061 2.924 2.442 1.166 4.686 1.45 7.413 1.45 2.896 0 7.413-.399 10.678-2.756 2.272-1.647 3.323-3.89 3.323-5.878s-1.051-4.26-3.323-5.879C43.242 1.027 39.125.317 35.461.317c-2.386 0-4.573.227-6.788 1.022-1.846.625-3.294 1.477-4.771 2.726l3.294 1.79.795-.824c.653-.71 1.761-1.363 2.755-1.761 1.335-.568 2.727-.738 4.175-.738 2.926 0 4.601.909 5.538 1.789.625.569 1.449 1.648 1.647 3.295l-10.11-.142zm134.56-7.668c1.647 0 3.521.341 4.971 2.13 1.164 1.42 1.362 3.068 1.362 4.516 0 1.449-.198 3.067-1.362 4.515-1.45 1.79-3.323 2.13-4.971 2.13s-3.521-.34-4.97-2.13c-1.165-1.448-1.363-3.066-1.363-4.515s.198-3.096 1.363-4.516c1.448-1.789 3.322-2.13 4.97-2.13m0 15.28c3.068 0 7.355-.682 10.225-2.756 2.271-1.618 3.352-3.918 3.352-5.878s-1.08-4.26-3.352-5.879C173.912.999 169.625.318 166.556.318c-3.038 0-7.355.681-10.252 2.754-2.271 1.619-3.323 3.92-3.323 5.879 0 1.96 1.052 4.26 3.323 5.878 2.896 2.074 7.214 2.756 10.252 2.756M110.238 4.89a7 7 0 0 1 2.103-.313h.767v8.491h-.767a7.1 7.1 0 0 1-2.103-.312c-.567-.171-1.08-.398-1.477-.738-.766-.597-1.392-1.591-1.392-3.21 0-1.59.626-2.583 1.392-3.18.397-.341.91-.568 1.477-.738m11.871 10.252c3.664-.227 5.595-1.079 6.617-1.704 1.933-1.164 2.813-2.811 2.813-4.629 0-2.385-1.563-3.805-2.813-4.6-1.732-1.107-4.175-1.563-6.617-1.705-.652-.056-1.307-.056-1.96-.056h-.709V.204h-6.561v2.244h-.683c-.652 0-1.306 0-1.959.056-2.471.142-4.912.597-6.617 1.705-1.249.795-2.812 2.215-2.812 4.6 0 1.818.88 3.465 2.812 4.629.993.625 2.925 1.478 6.617 1.704.597.029 1.25.056 1.959.056h.683v2.387h6.561v-2.387h.709c.711 0 1.365-.027 1.96-.056m0-10.252c.568.17 1.08.397 1.479.738.766.597 1.39 1.59 1.39 3.18 0 1.619-.624 2.613-1.39 3.21-.398.34-.91.567-1.479.738a7.3 7.3 0 0 1-2.131.312h-.738V4.577h.738c.768 0 1.479.113 2.131.313M86.354 2.305c1.62 0 3.521.341 4.97 2.13 1.165 1.42 1.363 3.068 1.363 4.516 0 1.449-.199 3.067-1.363 4.515-1.449 1.79-3.351 2.13-4.97 2.13-1.647 0-3.55-.34-4.998-2.13-1.165-1.448-1.334-3.066-1.334-4.515s.17-3.096 1.334-4.516c1.448-1.789 3.351-2.13 4.998-2.13m0 15.28c3.039 0 7.356-.682 10.224-2.756 2.244-1.618 3.294-3.918 3.294-5.878s-1.051-4.26-3.294-5.879C93.71.999 89.392.318 86.354.318c-3.067 0-7.384.681-10.252 2.754-2.272 1.619-3.323 3.92-3.323 5.879 0 1.96 1.051 4.26 3.323 5.878 2.868 2.074 7.185 2.756 10.252 2.756m-24.765-6.476h1.222c3.152 0 5.339-.341 6.901-1.25 1.959-1.165 2.414-2.755 2.414-4.004 0-1.222-.455-2.812-2.414-3.919C68.15 1.055 66.048.771 62.527.771H51.308v16.33h6.561v-5.992zm0-7.839c.795.029 1.818.171 2.556.625.994.624 1.165 1.477 1.165 1.988s-.143 1.42-1.221 2.073c-.739.483-1.647.625-2.5.682h-3.721V3.243h3.039c.199 0 .426 0 .682.027M10.81 4.606l3.266 5.565H7.543l3.096-5.679h.085zm4.601 7.781 2.812 4.714h7.327L15.61.771H9.531L.5 17.101h3.266l2.584-4.714zm163.414-9.144h7.043v13.858h6.561V3.243h7.071V.771h-20.675zm13.945 24.962h-1.08l-4.317 4.176 1.448-4.176h-1.106l-1.932 5.68h1.108l4.289-4.203-1.421 4.203h1.107zm-6.704 0h-1.078l-.767 2.217h-2.699l.768-2.217h-1.107l-1.933 5.68h1.108l.881-2.641h2.698l-.909 2.641h1.137zm-6.531 0h-1.079l-4.317 4.176 1.42-4.176h-1.08l-1.93 5.68h1.078l4.318-4.203-1.421 4.203h1.08zm-10.082 0-.653 1.621a15 15 0 0 1-.683 1.617c-.369.797-.738 1.563-1.702 1.789l-.172.738c.568-.027.994-.256 1.279-.424 1.106-.711 1.476-1.934 2.3-3.922l.283-.68h1.363l-1.646 4.939h1.078l1.932-5.68h-3.379zm-24.197 3.068c.142-.029.341-.029.567-.029h.796l-.397 1.193a1.9 1.9 0 0 1-.569.51c-.14.086-.282.143-.396.17a1.5 1.5 0 0 1-.597.115c-.228 0-.511-.029-.682-.256-.143-.199-.143-.426-.057-.711.086-.225.228-.451.54-.682a1.8 1.8 0 0 1 .795-.31m.597 2.612h.965l1.25-3.691c.199-.568.426-1.135.113-1.619-.255-.369-.88-.512-1.392-.512-.652 0-1.137.086-1.533.229-.824.313-1.193.854-1.222 1.334l.965.057c.058-.197.143-.34.257-.455.257-.311.683-.396 1.221-.396.228 0 .511.029.626.229.171.197.085.482 0 .738l-.228.736h-.824c-.284 0-.538 0-.795.029-1.107.141-2.044.596-2.442 1.762-.313.879 0 1.646 1.249 1.646.369 0 .767-.027 1.164-.227h.029a3.4 3.4 0 0 0 .795-.568h.028zm18.119-2.612c.17-.029.341-.029.568-.029h.824l-.427 1.193a2 2 0 0 1-.568.51 1.5 1.5 0 0 1-.397.17 1.34 1.34 0 0 1-.568.115c-.256 0-.538-.029-.682-.256-.17-.199-.17-.426-.085-.711.085-.225.229-.451.54-.682.17-.112.397-.253.795-.31m.595 2.612h.995l1.249-3.691c.17-.568.397-1.135.086-1.619-.257-.369-.881-.512-1.393-.512-.625 0-1.136.086-1.533.229-.824.313-1.165.854-1.222 1.334l.966.057c.057-.197.142-.34.256-.455.283-.311.681-.396 1.222-.396.226 0 .511.029.652.229.142.197.086.482 0 .738l-.257.736h-.823c-.283 0-.538 0-.794.029-1.106.141-2.046.596-2.442 1.762-.313.879 0 1.646 1.25 1.646.368 0 .766-.027 1.192-.227a3.3 3.3 0 0 0 .794-.568h.058zm-3.038-5.68h-1.108l-4.288 4.176 1.421-4.176h-1.108l-1.932 5.68h1.108l4.288-4.203-1.42 4.203h1.108zm-9.514 3.154c.198 0 .369.084.482.17.143.17.143.455.029.711a1.4 1.4 0 0 1-.482.652s-.029 0-.029.029c-.227.141-.54.195-.852.195h-1.335l.598-1.787h1.39c.085.001.143.001.199.03m0-2.414h.568c.199 0 .454 0 .625.17.17.199.142.396.086.625-.086.227-.199.453-.456.623-.282.199-.539.199-.823.199h-1.335l.567-1.617zm0 4.858c.369-.115.71-.314.966-.484a2.63 2.63 0 0 0 .795-1.078c.114-.344.143-.656-.029-.938-.112-.201-.34-.369-.651-.428l.028-.027c.369-.086.682-.285.88-.484.198-.197.369-.51.482-.795.171-.51.085-.795-.113-1.023-.283-.311-.738-.34-1.107-.34h-2.868l-1.959 5.68h2.81q.384-.002.766-.083m-18.885-4.887c.17-.057.34-.086.481-.086 1.107 0 .853.938.654 1.449l-.085.254h-2.33l.086-.254c.284-.853.767-1.22 1.194-1.363m0 2.357h1.902c.851-2.047.738-3.211-1.164-3.211-.228 0-.484.029-.738.086-1.108.256-2.103 1.166-2.699 2.982-.822 2.416.142 2.84 1.449 2.84.481 0 .908-.057 1.25-.168.908-.314 1.419-.939 1.504-1.563l-.937-.145c-.057.17-.198.541-.567.797-.228.17-.541.311-.995.311-.341 0-1.192-.086-.71-1.389l.171-.541zm-3.125-3.068h-1.079l-4.317 4.176 1.419-4.176h-1.078l-1.931 5.68h1.107l4.288-4.203-1.42 4.203h1.108zm-11.075 0-1.932 5.68h1.107l.88-2.555h1.052c.198 0 .453 0 .567.199.057.084.112.256.028.539l-.143.768c-.084.367-.142.766.313.992.228.086.568.143.768.143l.455-.824c-.086 0-.171 0-.257-.029-.228-.084-.198-.311-.17-.48l.057-.396c.028-.256.143-.627.028-.91-.057-.199-.284-.342-.512-.396v-.029a1.24 1.24 0 0 0 .653-.371c.2-.225.284-.367.398-.596l.199-.396c.084-.199.226-.512.511-.625.056-.029.143-.057.397-.086l.113-.738c-.426.057-.852.057-1.249.342-.341.256-.483.596-.625.881l-.171.311c-.142.287-.228.512-.511.684-.198.17-.426.17-.624.17h-.995l.768-2.273h-1.105zm-3.324 4.545c-.198.113-.455.197-.711.283a3 3 0 0 1-.823.113c-.369 0-.767-.029-1.022-.369-.313-.396-.114-1.021.143-1.732.198-.682.426-1.305.824-1.703.226-.227.566-.512 1.164-.512.397 0 .624.115.738.314.141.227.057.48-.114.852l1.051-.084c.396-.627.341-1.252-.114-1.563-.284-.201-.709-.287-1.163-.287-.568 0-1.251.143-1.818.482-1.051.625-1.563 1.764-1.79 2.473-.198.596-.481 1.703.086 2.387.369.48.966.566 1.619.566.426 0 .795-.027 1.278-.168.255-.115.538-.23.824-.371zm-4.942-7.016a.94.94 0 0 1-.283.398c-.198.17-.512.258-.71.258-.2 0-.483-.088-.54-.258-.086-.113-.058-.256 0-.398h-.795c-.2.426-.171.852.084 1.082.256.254.711.281.995.281.342 0 .768-.027 1.221-.281.426-.23.711-.656.823-1.082zm.854 2.471h-1.081l-4.316 4.176 1.419-4.176h-1.079l-1.931 5.68h1.107l4.289-4.203-1.419 4.203h1.107zm-6.705 0h-1.079l-4.316 4.176 1.421-4.176h-1.081l-1.931 5.68h1.08l4.289-4.203-1.421 4.203h1.108zm-8.178 4.545a6 6 0 0 1-.738.283c-.313.084-.54.113-.853.113-.34 0-.766-.029-.994-.369-.283-.396-.113-1.021.143-1.732.227-.682.455-1.305.852-1.703a1.48 1.48 0 0 1 1.136-.512c.397 0 .625.115.767.314.113.227.029.48-.113.852l1.022-.084c.397-.627.369-1.252-.085-1.563-.284-.201-.738-.287-1.193-.287-.568 0-1.25.143-1.817.482-1.051.625-1.534 1.764-1.79 2.473-.199.596-.483 1.703.085 2.387.37.48.994.566 1.619.566.426 0 .824-.027 1.278-.168.227-.115.54-.23.795-.371zm-5.595 0a8 8 0 0 1-.738.283c-.313.084-.54.113-.852.113-.341 0-.767-.029-.994-.369-.313-.396-.114-1.021.142-1.732.198-.682.426-1.305.852-1.703.199-.227.54-.512 1.136-.512.369 0 .624.115.738.314.114.227.057.48-.114.852l1.052-.084c.397-.627.34-1.252-.085-1.563-.285-.201-.739-.287-1.193-.287-.568 0-1.25.143-1.818.482-1.051.625-1.534 1.764-1.79 2.473-.198.596-.482 1.703.086 2.387.369.48.994.566 1.619.566.426 0 .823-.027 1.278-.168.228-.115.54-.23.795-.371zM83.685 29a1.9 1.9 0 0 1 .767-.17c.454 0 .681.199.767.369.227.426.028 1.053-.057 1.334l-.369.996c-.085.285-.313.908-.795 1.307-.085.086-.17.141-.312.227-.199.084-.427.17-.738.17-.484 0-.71-.199-.795-.396-.199-.398 0-1.021.085-1.307l.34-.996c.114-.281.341-.908.824-1.334.083-.055.169-.141.283-.2m1.022-.937c-.369 0-.71.057-1.022.143-.398.145-.738.34-1.051.598-.795.623-1.192 1.506-1.42 2.242-.256.684-.483 1.563-.113 2.217.255.426.738.709 1.59.709.369 0 .71-.027.994-.143a2.8 2.8 0 0 0 1.079-.566c.795-.654 1.193-1.533 1.448-2.217.228-.736.426-1.619.057-2.242-.227-.429-.71-.741-1.562-.741m-5.567-1.448h.71c.37 0 .795.115.965.342.114.113.313.396.114.965-.199.598-.568.938-.738 1.051-.369.283-.739.398-1.051.398-.084.029-.17.029-.255.029h-1.619l.937-2.785zm0 3.694a3.54 3.54 0 0 0 1.96-.74c.539-.369.994-.994 1.221-1.646.141-.455.255-1.191-.255-1.705-.511-.482-1.25-.539-1.932-.539h-2.812l-2.783 8.207h1.222l1.192-3.549h1.761c.114-.001.256-.001.426-.028m120.36-2.104h-1.107l-4.289 4.176 1.42-4.176h-1.108l-1.931 5.68h1.108l4.288-4.203-1.419 4.203h1.107zM11.377 36.639 9.02 35.617l9.77-1.191c.17.283.341.539.54.795zm26.213 0 2.357-1.078-9.713-1.164c-.085.313-.341.568-.511.824zm-1.419.172-2.954.994-4.203-1.277-.37-.113c.142-.115.256-.229.37-.369.17-.143.312-.342.483-.484zm7.81-2.754-2.698 1.25-10.792-1.25.256-.768zm.965-.369 3.521-2.244H29.383c0 .797-.114 1.479-.369 2.074-.739 1.902-2.584 2.811-4.431 2.781-1.817-.057-3.663-.992-4.487-2.727a5 5 0 0 1-.454-2.129H.5l3.494 2.244 14.626-.766c.283 1.049.794 1.959 1.476 2.639 1.165 1.223 2.84 1.904 4.487 1.904 1.619.029 3.267-.566 4.431-1.875.625-.682 1.107-1.563 1.391-2.613zm-15.932 5.791.369.684-.369.172-.994.453-1.136-2.244a7.7 7.7 0 0 1-2.301.426 7.3 7.3 0 0 1-2.499-.342l-.966 2.16c-.313.027-.739 0-1.022-.197a.75.75 0 0 1-.34-.428l.34-.568.824-1.479c-.256-.168-.483-.281-.71-.51l.682-.822c1.164.711 2.442 1.107 3.691 1.107 1.25.029 2.499-.371 3.664-1.193l.768.227.312.115c-.113.084-.199.17-.312.256-.228.225-.426.453-.795.652zm0-11.614c.738.881 1.277 1.961 1.562 3.209h-1.221a6.7 6.7 0 0 0-.34-1.078c-.824-2.158-2.5-3.693-4.431-4.973-.255-.141-.482-.311-.738-.453.256.086.483.172.738.258 1.76.707 3.322 1.674 4.43 3.037m-3.295 8.008a2.9 2.9 0 0 0 1.165-.51l-1.932-3.834 2.017-.967-1.704-1.477-.682.315-2.925 1.332.852 1.932 1.392-.623zm-5.282.541c-.114-.086-.228-.199-.341-.285a3.6 3.6 0 0 1-.568-.596l-6.669 1.26 2.839.953zm-1.817-2.357c-.114-.254-.199-.51-.285-.768l-13.348.768 2.698 1.307z" fill-rule="evenodd" clip-rule="evenodd" fill="#00529C"/></svg>
