<svg xmlns="http://www.w3.org/2000/svg" width="225" height="60.527" viewBox="0 0 59.531 16.014">
  <path d="M57.135 7.092V4.481h-2.612v2.611h-1.436V.902h1.436v2.456h2.612V.903h1.436v6.19zM26.317.902v3.866c0 .418.052.81.183 1.097s.313.548.522.731c.235.183.522.34.836.418a4.5 4.5 0 0 0 2.168 0c.313-.078.574-.235.783-.418s.392-.444.496-.731c.13-.314.183-.68.183-1.097V.903h-1.332v3.839c0 .391-.104.705-.287.94s-.496.366-.914.366-.732-.131-.914-.366-.288-.549-.288-.94V.902Zm-4.127 6.19v-5.04H20.52V.902h4.806v.549c0 .34-.262.6-.601.6h-1.097v5.041zM45.173.902h1.437v6.19h-1.437zM40.42 4.194l.052.052 1.829 2.351c.235.287.574.47.966.47h1.149l-2.612-3.343-.026-.052.026-.052L43.946.903h-1.489l-1.985 2.663-.052.053V.903h-1.436v6.19h1.436V4.297Zm-3.29 2.9c-.418 0-.836-.236-1.045-.575l-1.123-1.829h-.705v2.43H32.82V.902h2.56c.652 0 1.175.182 1.514.496.366.34.549.81.549 1.358q0 .43-.235.862t-.784.705l-.078.026 1.75 2.716h-.967zm-2.873-3.37h.835c.288 0 .523-.078.68-.235q.234-.235.234-.627a.95.95 0 0 0-.209-.627c-.156-.156-.365-.235-.679-.235h-.835v1.724zm13.528 3.108V5.656c.444.209 1.045.418 1.645.418.706 0 1.045-.235 1.045-.705 0-.549-.47-.601-1.436-1.019-.653-.287-1.254-.731-1.254-1.776 0-1.201.914-1.776 2.194-1.776.679 0 1.254.157 1.567.287v1.15a3.6 3.6 0 0 0-1.489-.34c-.627 0-.914.235-.914.627 0 .418.366.548.993.783.81.418 1.776.601 1.776 1.985 0 1.202-.967 1.854-2.246 1.854-.758.027-1.385-.104-1.88-.313m2.245 8.331v-6.19h3.865v.55c0 .339-.26.6-.6.6h-1.854v1.332h2.089v1.044h-2.09v1.515h2.455v1.15zm-14.155 0v-6.19h.705a.73.73 0 0 1 .731.732v4.335h2.272v1.123zm-8.854 0v-6.19h1.437v6.19zm7.026 0c-.418 0-.836-.235-1.045-.574L31.88 12.76h-.705v2.429h-1.437V8.973h2.56c.653 0 1.175.182 1.515.496.365.34.548.81.548 1.358 0 .287-.078.575-.235.888q-.235.43-.784.705l-.078.026 1.75 2.716zM31.2 11.793h.836c.313 0 .522-.078.679-.235q.235-.235.235-.627a.95.95 0 0 0-.21-.626c-.156-.157-.365-.235-.678-.235h-.836zm-7.313-2.82h-1.645l-2.325 6.19h1.019a.59.59 0 0 0 .574-.418l.235-.732h2.508l.365 1.15h1.541zm-1.776 3.943.549-1.567c.13-.34.26-.731.34-.992h.025c.079.287.21.627.314.992l.548 1.567zm32.934 1.985v-1.175c.444.209 1.044.418 1.645.418.705 0 1.045-.235 1.045-.705 0-.549-.47-.601-1.437-1.019-.653-.287-1.253-.731-1.253-1.776 0-1.201.914-1.776 2.193-1.776.68 0 1.254.157 1.567.287v1.15a3.6 3.6 0 0 0-1.488-.34c-.627 0-.914.235-.914.627 0 .418.365.548.992.783.81.418 1.776.601 1.776 1.985 0 1.202-.966 1.855-2.246 1.855-.757.026-1.384-.105-1.88-.314m-11.78-5.928h.889c.418 0 .81.209 1.045.574l1.723 2.769c.183.313.418.705.549.992h.026c-.026-.287-.026-.653-.026-.94V8.973h1.253v6.19h-1.567l-2.089-3.344a42 42 0 0 1-.549-.966h-.026c0 .261.026.575.026.888v3.421h-1.253Zm-2.741 0h1.436v6.19h-1.436z"/>
  <path d="M33.4.2c15.2 1.6 27.1 14.4 27.1 30.1C60.5 47 47 60.5 30.3 60.5S0 47 0 30.3 13.5 0 30.3 0c1 0 2.1.1 3.1.2M35 58.4c15.5-2.6 26-17.3 23.4-32.9C56.2 12.6 45.7 3.2 33.3 1.9c-2.5-.3-5.1-.2-7.7.2-3.1.5-6 1.5-8.6 2.9 13.6 4.7 21 11.8 21.5 19 .3 4.5-1.8 7.7-4.6 10.3L53.3 33c.5 0 .7.6.1.8L7.1 47c4.7 6.5 12 10.8 20.1 11.6 2.6.3 5.2.3 7.8-.2M22.3 30.9c2.5-9.5-.4-19.5-7.3-24.8C5.6 12.1.1 23.3 2.1 35c.6 3.9 2 7.4 4 10.5 7.4-2 13.9-5.9 16.2-14.6" style="fill:#fff" transform="translate(.435 .119)scale(.26117)"/>
  <path d="M35 58.4c15.5-2.6 26-17.3 23.4-32.9C56.2 12.6 45.7 3.2 33.3 1.9c-2.5-.3-5.1-.2-7.7.2-3.1.5-6 1.5-8.6 2.9 13.6 4.7 21 11.8 21.5 19 .3 4.5-1.8 7.7-4.6 10.3L53.3 33c.5 0 .7.6.1.8L7.1 47c4.7 6.5 12 10.8 20.1 11.6 2.6.3 5.2.3 7.8-.2M22.3 30.9c2.5-9.5-.4-19.5-7.3-24.8C5.6 12.1.1 23.3 2.1 35c.6 3.9 2 7.4 4 10.5 7.4-2 13.9-5.9 16.2-14.6" style="fill:#c70a0c" transform="translate(.435 .119)scale(.26117)"/>
</svg>
